<?xml version="1.0" encoding="UTF-8"?>
<svg id="Layer_1" xmlns="http://www.w3.org/2000/svg" version="1.1" viewBox="0 0 330.96 303.84">
  <!-- Generator: Adobe Illustrator 30.0.0, SVG Export Plug-In . SVG Version: 2.1.1 Build 123)  -->
  <defs>
    <style>
      .st0 {
        fill: #d3222c;
      }

      .st1 {
        fill: #fff;
      }

      .st2 {
        fill: #f3a502;
      }

      .st3 {
        fill: #1d3c75;
      }

      .st4 {
        fill: #1b3a74;
      }
    </style>
  </defs>
  <path class="st1" d="M165.12,29.45c-67.64,0-122.48,54.83-122.48,122.47s54.84,122.47,122.48,122.47,122.48-54.83,122.48-122.47S232.76,29.45,165.12,29.45ZM140.06,47l13.07,5.73c4.28-4.83,7.64-10.34,11.03-15.8.37-.09.72.53.89.78.96,1.37,1.78,3.24,2.72,4.71,2.31,3.61,4.89,7.05,7.65,10.33,1.26-.95,2.82-1.56,4.27-2.2,2.29-1.01,4.89-2.25,7.19-3.12.25-.1,1.54-.5,1.6-.43h.02v23.98c-5.43-3.05-11.65-5.47-17.89-6.21-8.77-1.04-17.89.1-25.92,3.77-1.66.76-3.18,1.79-4.87,2.44l.24-23.98ZM81.95,165.77c-3.59.93-7.96,2.86-11.39,3.47-.5.09-1,.06-1.51.06l9.6-87.77c4.37-.76,8.71-1.72,13.1-2.37,14.34-2.12,31.54-3.31,45.1,2.56,3.6,1.56,10.53,5.27,13.19,8.04h0c.38.4.95,1.14.76,1.68l-1.76,2.58c-5.61-3.13-11.52-5.68-17.81-7.14-12.04-2.78-28.21-2.22-40.39,0-1.68.31-3.35.62-4.96,1.16-.03,3.64-.66,7.26-.99,10.88-.89,9.72-1.49,19.53-2.4,29.26-.91,9.73-2.13,19.22-2.88,28.77-.05.6.03,1.2,0,1.8,5.53-1.38,11.23-2.67,16.9-3.36,16.11-1.94,30.56-1.42,44.89,6.67.74.42,4.22,2.32,4.36,2.85.33.87-.5,1.12-.67,1.46-.43.87-.24,1.86-.77,2.67-2.34-.81-4.55-1.94-6.87-2.8-17.84-6.59-37.4-5.19-55.51-.47ZM149.88,238.61h0s-20.1-.27-20.1-.27l-.16-.92c1.22-1.51,2.76-2.97,3.96-4.45.17-.21.88-1.11.72-1.31-4.54-2.17-8.78-5.06-13.12-7.63-2.41-1.43-4.98-2.66-7.34-4.17-.36-.23-1.13-.57-1.13-1.03,2.2-1.6,5.43-3.49,4.75-6.66l-4.5-12.4c1.95.21,3.92.51,5.87.72,2.11.22,4.37.6,6.48.72,1.03.06,3.08.27,3.67-.65.83-1.31,1.27-4.27,1.73-5.83l.56.03,12.14,14-7.43-29.14,8.14,3.35,5.76-10.07v65.71h.01s-.01,0-.01,0ZM173.87,258.99h-19.19v-122.06h-41.97v-17.27c.31.14.72-.24.84-.24h41.13v-47h19.19v47h41.37c.07,0,.36.33.6.24v17.27h-41.97v122.06ZM214.73,219.61l-21.17,12.29c-.48.69,4.21,4.77,5.03,5.18.18.33.41.9,0,1.16l-20.16.35v-65.45h0s0-.02,0-.02v.02l5.75,9.72c.15.11.94-.17,1.2-.26,2.41-.76,4.56-2.23,6.96-2.99-1.57,9.87-5.07,19.32-7.43,29.01l12.35-13.91c.7-.16.8,2.06.95,2.64.99,3.71.95,4.09,5.04,3.83,3-.19,6.29-1.01,9.35-1.2.83-.05,1.68.04,2.52,0-1.01,3.63-2.71,7.08-3.84,10.67-.25.81-.77,2.07-.73,2.88.07,1.75,3.39,4.35,4.82,5.28l-.64.8ZM257.98,169.25c-3.43-.61-7.81-2.54-11.39-3.47-18.11-4.72-37.68-6.12-55.51.47-2.32.86-4.53,2-6.87,2.8-.53-.81-.33-1.8-.77-2.67-.17-.34-1-.59-.67-1.46.15-.53,3.62-2.43,4.36-2.85,14.33-8.1,28.78-8.62,44.89-6.67,5.68.68,11.37,1.98,16.9,3.36.21-.24-.38-5.09-.44-5.88-1.58-20.79-4.17-41.73-5.8-62.59-.06-.75.07-1.51-.03-2.25-1.62-.54-3.28-.85-4.96-1.16-10.9-1.99-25.73-2.68-36.6-.77-7.55,1.33-14.82,3.96-21.4,7.87h-.31c-.44-.52-.64-1.18-.98-1.73-.25-.41-1.08-.49-.6-1.6.38-.88,4.38-3.75,5.41-4.43,16.18-10.6,35.1-9.79,53.55-7.06,4.39.65,8.73,1.61,13.1,2.37h.03s9.6,87.78,9.6,87.78c-.5,0-1,.03-1.51-.06Z"/>
  <path class="st0" d="M165.12,24.22c-70.53,0-127.71,57.17-127.71,127.7s57.18,127.7,127.71,127.7,127.71-57.17,127.71-127.7S235.65,24.22,165.12,24.22ZM165.12,274.39c-67.64,0-122.48-54.83-122.48-122.47S97.48,29.45,165.12,29.45s122.48,54.83,122.48,122.47-54.84,122.47-122.48,122.47Z"/>
  <path class="st4" d="M215.84,119.66c-.24.09-.53-.24-.6-.24h-41.37v-47h-19.19v47h-41.13c-.12,0-.53.38-.84.24v17.27h41.97v122.06h19.19v-122.06h41.97v-17.27Z"/>
  <path class="st3" d="M249.89,81.54h-.03c-4.37-.77-8.71-1.73-13.1-2.38-18.45-2.73-37.37-3.54-53.55,7.06-1.03.68-5.03,3.55-5.41,4.43-.48,1.11.35,1.19.6,1.6.34.55.54,1.21.98,1.73h.31c6.58-3.91,13.85-6.54,21.4-7.87,10.87-1.91,25.7-1.22,36.6.77,1.68.31,3.34.62,4.96,1.16.1.74-.03,1.5.03,2.25,1.63,20.86,4.22,41.8,5.8,62.59.06.79.65,5.64.44,5.88-5.53-1.38-11.22-2.68-16.9-3.36-16.11-1.95-30.56-1.43-44.89,6.67-.74.42-4.21,2.32-4.36,2.85-.33.87.5,1.12.67,1.46.44.87.24,1.86.77,2.67,2.34-.8,4.55-1.94,6.87-2.8,17.83-6.59,37.4-5.19,55.51-.47,3.58.93,7.96,2.86,11.39,3.47.51.09,1.01.06,1.51.06l-9.6-87.77Z"/>
  <path class="st3" d="M144.33,169.04c.53-.81.34-1.8.77-2.67.17-.34,1-.59.67-1.46-.14-.53-3.62-2.43-4.36-2.85-14.33-8.09-28.78-8.61-44.89-6.67-5.67.69-11.37,1.98-16.9,3.36.03-.6-.05-1.2,0-1.8.75-9.55,1.97-19.04,2.88-28.77.91-9.73,1.51-19.54,2.4-29.26.33-3.62.96-7.24.99-10.88,1.61-.54,3.28-.85,4.96-1.16,12.18-2.22,28.35-2.78,40.39,0,6.29,1.46,12.2,4.01,17.81,7.14l1.76-2.58c.19-.54-.38-1.28-.76-1.67h0c-2.66-2.78-9.59-6.49-13.19-8.05-13.56-5.87-30.76-4.68-45.1-2.56-4.39.65-8.73,1.61-13.1,2.37l-9.6,87.77c.51,0,1.01.03,1.51-.06,3.43-.61,7.8-2.54,11.39-3.47,18.11-4.72,37.67-6.12,55.51.47,2.32.86,4.53,1.99,6.87,2.8Z"/>
  <path class="st0" d="M144.12,182.97l-8.14-3.35,7.43,29.14-12.14-14-.56-.03c-.46,1.56-.9,4.52-1.73,5.83-.59.92-2.64.71-3.67.65-2.11-.12-4.37-.5-6.48-.72-1.95-.21-3.92-.51-5.87-.72l4.5,12.4c.68,3.17-2.55,5.06-4.75,6.66,0,.46.77.8,1.13,1.03,2.36,1.51,4.93,2.74,7.34,4.17,4.34,2.57,8.58,5.46,13.12,7.63.16.2-.55,1.1-.72,1.31-1.2,1.48-2.74,2.94-3.96,4.45l.16.92,20.1.27v-65.71l-5.76,10.07Z"/>
  <polygon class="st0" points="149.88 238.61 149.89 238.61 149.88 238.61 149.88 238.61"/>
  <polygon class="st0" points="178.43 173.14 178.43 173.14 178.43 173.12 178.43 173.14"/>
  <path class="st0" d="M210.55,213.53c-.04-.81.48-2.07.73-2.88,1.13-3.59,2.83-7.04,3.84-10.67-.84.04-1.69-.05-2.52,0-3.06.19-6.35,1.01-9.35,1.2-4.09.26-4.05-.12-5.04-3.83-.15-.58-.25-2.8-.95-2.64l-12.35,13.91c2.36-9.69,5.86-19.14,7.43-29.01-2.4.76-4.55,2.23-6.96,2.99-.26.09-1.05.37-1.2.26l-5.75-9.72v65.45l20.16-.35c.41-.26.18-.83,0-1.16-.82-.41-5.51-4.49-5.03-5.18l21.17-12.29.64-.8c-1.43-.93-4.75-3.53-4.82-5.28Z"/>
  <path class="st2" d="M170.61,64.77c6.24.74,12.46,3.16,17.89,6.21v-23.98h-.02c-.06-.07-1.35.33-1.6.43-2.3.87-4.9,2.11-7.19,3.12-1.45.64-3.01,1.25-4.27,2.2-2.76-3.28-5.34-6.72-7.65-10.33-.94-1.47-1.76-3.34-2.72-4.71-.17-.25-.52-.87-.89-.78-3.39,5.46-6.75,10.97-11.03,15.8l-13.07-5.73-.24,23.98c1.69-.65,3.21-1.68,4.87-2.44,8.03-3.67,17.15-4.81,25.92-3.77Z"/>
</svg>